<svg xmlns="http://www.w3.org/2000/svg" height="48" viewBox="0 -960 960 960" width="48"><path d="m235-73 54-121.752Q272-207 258.5-218.5 245-230 231-244q-8 4-18.237 6-10.237 2-18.349 2Q162-236 139.5-258.5T117-313.717q0-20.434 9-38.859 9-18.424 24-26.341-7-24.827-11-50.651-4-25.823-4-51.627 0-26.805 3.5-52.015t11.5-49.926Q135-593 126-610t-9-37.6q0-32.99 22.5-56.195T194.414-727q8.112 0 17.849 2.5T230-718q35-36 76.861-60.6Q348.722-803.2 401-816q5.25-31.714 27.875-51.357T480-887q28.6 0 51.8 19.5Q555-848 559-816.293 610-803 656-781t80 60q7-2 13.873-4 6.872-2 13.727-2 33.05 0 56.225 23.205Q843-680.59 843-647.6q0 22.6-9.5 39.1T810-583.105q8 25.77 11.5 50.531t3.5 51.512q0 25.751-3.5 51.017Q818-404.78 810-380q17 11 25 29.946 8 18.947 8 36.365Q843-281 820.5-258.5T765.438-236q-8.136 0-18.414-2-10.278-2-17.024-6-13 14-27 26t-30 23l53 122h-62l-42-93q-17 6-31.325 10.375T559-145.906Q554-112 531.3-93.5T480-75q-28.5 0-51.125-18.571Q406.25-112.143 401-146q-17.268-5.167-32.009-9.417T340-167l-44 94h-61Zm77-176 70-152q-14.067-17.119-22.033-36.478Q352-456.837 352-479.774 352-532 391.581-570t91.5-38Q535-608 571.5-569.957 608-531.915 608-479.8q0 22.89-7.031 42.436Q593.938-417.819 578-401l70 152q11-8 22-16.795 11-8.796 21-20.205-2-6-3.5-12.839-1.5-6.84-1.5-15.161 0-32 17-56.5t51-22.5q7-20 10.5-42.5T768-481q0-24-3.5-46.175-3.5-22.174-9.5-41.857Q724-574 704.5-596.5T685-648.337q0-9.095 1.5-15.184 1.5-6.09 4.5-14.174Q659-709 623.6-729.5 588.2-750 543.754-762q-8.125 13-24.82 23Q502.24-729 480-729q-22.145 0-38.262-10t-25.992-23q-43.537 12-80.641 32.5Q298-709 269-676q4 8 4.5 13.827T274-648q0 32-20 53.5T206-568q-7 20-10.5 41.5T192-481q0 23 3.5 45t10.5 42q33 7 50.5 30t17.5 50q0 9-1 15.5t-3 11.7q10.103 11.225 20.397 19.912Q300.69-258.2 312-249Zm48 29.12q12 4.88 25.829 10.38 13.828 5.5 30.592 9.5 10.386-14 25.983-23.5Q458-233 480-233q22 0 38.798 9.5 16.798 9.5 24.991 23.5 17.211-4 30.039-9 12.828-5 24.172-9.769L533.765-367q-11.765 8-26.488 11.5-14.724 3.5-28.426 3.5-13.681 0-28.394-4-14.712-4-26.05-12L360-219.88Z"/></svg>