<svg xmlns="http://www.w3.org/2000/svg" height="48" viewBox="0 -960 960 960" width="48"><path d="M446-186h65v-53q64-9 97-39.996 33-30.996 33-83.925 0-51.579-28.5-85.329Q584-482 513.545-511 457-535 429.5-553.477 402-571.955 402-603.049 402-632 423.028-649T482-666q31.471 0 52.235 14.5Q555-637 569-608l58-27q-17-38-45.5-60T513-721.057V-773h-65v52q-51 8-81 39.458T337-603q0 51 30.5 81.5T457-467q67 28 93 49.946 26 21.946 26 54.054 0 29.938-25 48.469Q526-296 486.564-296q-38.436 0-68.5-22.5T377-380l-61 20q20 49 51.5 77.5t78.5 40.849V-186Zm33.542 122Q394.36-64 318.52-97.02q-75.84-33.02-132.16-89.34-56.32-56.32-89.34-132.291T64-480q0-86.272 33.079-162.149 33.079-75.878 89.686-132.47 56.606-56.592 132.216-88.986Q394.59-896 479.557-896q86.329 0 162.512 32.395 76.183 32.394 132.557 89Q831-718 863.5-641.958q32.5 76.041 32.5 162.5 0 85.458-32.395 160.797-32.394 75.338-88.986 131.921-56.592 56.582-132.616 89.661Q565.979-64 479.542-64Z"/></svg>