<svg xmlns="http://www.w3.org/2000/svg" height="48" viewBox="0 -960 960 960" width="48"><path d="M480-332q94.175-86.167 120.588-119.783Q627-485.399 627-519.5q0-33.364-24.147-56.932Q578.706-600 545.401-600q-19.762 0-36.889 7.766Q491.386-584.469 480-571q-11.644-13.469-29.165-21.234Q433.315-600 414.333-600q-33.197 0-56.765 23.505Q334-552.99 334-519.598 334-502 339-487t20.32 35.157q15.32 20.157 44.06 47.941Q432.12-376.118 480-332Zm.022 268Q334-99 239.5-232.056T145-522.93v-248.651L480-898l335 126.419v248.216Q815-365 720.522-232t-240.5 168ZM480-139q115-39 188.5-145.5T742-523.21V-721.1L480-820l-262 98.9v197.89Q218-391 291.5-284.5T480-139Zm0-341Z"/></svg>