<svg xmlns="http://www.w3.org/2000/svg" height="48" viewBox="0 -960 960 960" width="48"><path d="m639-410-52-53q24-73-29.663-119.5T443-607l-53-52q17-11 41.5-17t48.816-6Q556-682 609-629t53 128.684q0 24.316-6 48.46-6 24.144-17 41.856Zm131 131-49-50q49-36 86-81.016 37-45.017 54-90.4Q810-612 709.129-677q-100.871-65-219.482-65-41.649 0-86.811 8-45.162 8-68.836 19l-56-58q36-16 93.5-29t113.889-13Q634-815 757.5-729.5T938-500q-26 68-69 123.5T770-279Zm50 237L646-213q-35 14-78.651 21-43.652 7-87.349 7-152 0-276.5-85.5T22-500q19-53 53.5-102.5t85.5-96.77L34-826l51-52L868-95l-48 53ZM212-647q-35 28-67.5 69T98-500q51.578 112.082 155.289 177.041Q357-258 488-258q29 0 57.5-3.5T587-272l-54-55q-10 4-24.5 6.5T480-318q-75 0-128.5-52.5T298-500q0-14.065 2.5-27.532Q303-541 307-553l-95-94Zm317 134Zm-129 64Z"/></svg>